<?xml version="1.0" encoding="UTF-8" standalone="no"?>
<!DOCTYPE svg PUBLIC "-//W3C//DTD SVG 20010904//EN"
              "http://www.w3.org/TR/2001/REC-SVG-20010904/DTD/svg10.dtd">

<svg xmlns="http://www.w3.org/2000/svg"
     width="2.69444in" height="0.722222in"
     viewBox="0 0 194 52">
	 <g>
  <path id="选区"
        fill="none" stroke="#000000" stroke-width="1"
        d="M 41.00,27.00
           C 43.16,27.42 47.63,27.99 49.01,29.73
             51.84,33.32 47.89,43.88 44.66,46.40
             42.22,48.31 38.92,47.99 36.00,48.00
             26.67,48.02 21.58,48.03 17.48,38.00
             15.84,33.98 15.95,30.25 16.00,26.00
             16.08,19.49 17.60,13.91 23.09,9.80
             30.77,4.06 43.14,6.31 46.00,16.09
             42.36,15.52 38.48,14.43 35.00,16.09
             27.91,19.74 22.39,32.57 26.17,40.00
             29.90,47.30 38.46,49.00 42.00,37.00
             36.75,37.00 32.22,38.52 30.00,33.00
             30.00,33.00 36.00,32.00 36.00,32.00
             36.00,32.00 32.00,31.00 32.00,31.00
             32.00,31.00 32.00,26.00 32.00,26.00
             36.10,26.09 36.98,26.21 41.00,27.00 Z
           M 27.00,14.00
           C 27.00,14.00 27.00,15.00 27.00,15.00
             27.00,15.00 29.00,16.00 29.00,16.00
             29.00,16.00 30.00,14.00 30.00,14.00
             30.00,14.00 29.00,13.00 29.00,13.00
             29.00,13.00 27.00,14.00 27.00,14.00 Z
           M 22.00,17.00
           C 22.00,17.00 22.00,20.00 22.00,20.00
             22.00,20.00 25.00,20.00 25.00,20.00
             25.00,20.00 25.00,17.00 25.00,17.00
             25.00,17.00 22.00,17.00 22.00,17.00 Z
           M 20.00,24.00
           C 20.00,24.00 20.00,25.00 20.00,25.00
             20.00,25.00 22.00,26.00 22.00,26.00
             22.00,26.00 23.00,24.00 23.00,24.00
             23.00,24.00 22.00,23.00 22.00,23.00
             22.00,23.00 20.00,24.00 20.00,24.00 Z" />

	<path d="M 83.30,41.60
           C 80.97,39.38 70.90,39.42 68.22,41.02
             63.57,43.80 66.51,48.74 56.89,47.94
             48.32,47.21 54.59,38.34 56.89,34.00
             56.89,34.00 65.75,15.00 65.75,15.00
             66.80,12.90 68.80,8.28 70.63,6.99
             72.52,5.68 76.71,6.00 79.00,6.00
             79.00,6.00 92.00,48.00 92.00,48.00
             92.00,48.00 86.00,48.00 86.00,48.00
             85.48,45.82 85.01,43.22 83.30,41.60 Z
           M 70.00,30.00
           C 70.00,30.00 80.00,29.00 80.00,29.00
             80.00,29.00 76.00,13.00 76.00,13.00
             76.00,13.00 70.00,30.00 70.00,30.00 Z
           M 63.00,33.00
           C 63.00,33.00 64.00,34.00 64.00,34.00
             64.00,34.00 64.00,33.00 64.00,33.00
             64.00,33.00 63.00,33.00 63.00,33.00 Z
           M 68.00,36.00
           C 68.00,36.00 82.00,36.00 82.00,36.00
             78.98,31.54 72.19,34.06 68.00,36.00 Z
           M 62.00,35.00
           C 62.00,35.00 63.00,36.00 63.00,36.00
             63.00,36.00 63.00,35.00 63.00,35.00
             63.00,35.00 62.00,35.00 62.00,35.00 Z
           M 61.00,37.00
           C 61.00,37.00 62.00,38.00 62.00,38.00
             62.00,38.00 62.00,37.00 62.00,37.00
             62.00,37.00 61.00,37.00 61.00,37.00 Z
           M 59.00,45.00
           C 59.00,45.00 60.00,41.00 60.00,41.00
             60.00,41.00 59.00,45.00 59.00,45.00 Z" />

	<path	d="M 133.24,14.00
           C 135.34,22.70 133.00,38.43 133.24,48.00
             133.24,48.00 125.00,46.98 125.00,46.98
             125.00,46.98 116.83,39.00 116.83,39.00
             116.83,39.00 104.00,26.00 104.00,26.00
             104.00,26.00 104.00,41.00 104.00,41.00
             104.00,41.00 102.40,46.98 102.40,46.98
             102.40,46.98 93.00,48.00 93.00,48.00
             94.36,42.08 94.53,39.54 101.00,39.00
             101.00,39.00 101.00,23.00 101.00,23.00
             101.00,23.00 102.00,5.00 102.00,5.00
             102.00,5.00 112.08,15.00 112.08,15.00
             112.08,15.00 127.00,33.00 127.00,33.00
             127.00,33.00 127.79,12.00 127.79,12.00
             127.79,12.00 125.00,2.00 125.00,2.00
             130.54,3.79 132.33,8.61 133.24,14.00 Z
           M 108.00,22.00
           C 108.00,22.00 108.00,23.00 108.00,23.00
             108.00,23.00 110.00,24.00 110.00,24.00
             110.00,24.00 111.00,22.00 111.00,22.00
             111.00,22.00 110.00,21.00 110.00,21.00
             110.00,21.00 108.00,22.00 108.00,22.00 Z
           M 115.00,29.00
           C 115.00,29.00 115.00,32.00 115.00,32.00
             115.00,32.00 118.00,32.00 118.00,32.00
             118.00,32.00 118.00,29.00 118.00,29.00
             118.00,29.00 115.00,29.00 115.00,29.00 Z
           M 122.00,38.00
           C 122.00,38.00 122.00,39.00 122.00,39.00
             122.00,39.00 124.00,40.00 124.00,40.00
             124.00,40.00 125.00,38.00 125.00,38.00
             125.00,38.00 124.00,37.00 124.00,37.00
             124.00,37.00 122.00,38.00 122.00,38.00 Z" />
	<path	d="M 172.00,6.00
           C 171.46,16.94 165.73,22.98 155.00,25.00
             155.00,25.00 163.00,34.00 163.00,34.00
             165.62,26.54 170.93,35.07 163.00,34.00
             163.00,34.00 167.00,39.00 167.00,39.00
             169.26,32.56 174.44,37.74 168.00,40.00
             168.00,40.00 171.00,44.00 171.00,44.00
             172.91,38.57 175.30,41.36 175.11,42.89
             175.11,42.89 172.00,48.00 172.00,48.00
             172.00,48.00 162.33,47.43 162.33,47.43
             162.33,47.43 150.00,29.00 150.00,29.00
             150.00,29.00 150.00,48.00 150.00,48.00
             150.00,48.00 142.00,48.00 142.00,48.00
             142.00,48.00 143.00,7.00 143.00,7.00
             143.00,7.00 149.00,7.00 149.00,7.00
             149.00,7.00 149.00,22.00 149.00,22.00
             158.05,19.56 165.21,15.47 168.00,6.00
             168.00,6.00 172.00,6.00 172.00,6.00 Z
           M 162.40,28.85
           C 161.45,29.49 158.87,29.12 160.60,26.15
             164.01,25.69 163.36,28.21 162.40,28.85 Z
           M 167.00,39.00
           C 167.00,39.00 168.00,40.00 168.00,40.00
             168.00,40.00 168.00,39.00 168.00,39.00
             168.00,39.00 167.00,39.00 167.00,39.00 Z
           M 171.00,44.00
           C 171.00,44.00 172.00,45.00 172.00,45.00
             172.00,45.00 172.00,44.00 172.00,44.00
             172.00,44.00 171.00,44.00 171.00,44.00 Z" />
			 </g>
</svg>
